<svg version="1.1" id="Layer_1" xmlns="http://www.w3.org/2000/svg" xmlns:xlink="http://www.w3.org/1999/xlink" x="0px" y="0px" viewBox="0 0 500 500" style="width: 166px;" xml:space="preserve" data-imageid="nurse-25" imageName="Nurse" class="illustrations_image">
<style type="text/css">
	.st0_nurse-25{fill:#725858;}
	.st1_nurse-25{fill:#093F68;}
	.st2_nurse-25{fill:#68E1FD;}
	.st3_nurse-25{fill:#FFC9B0;}
	.st4_nurse-25{fill:#FFFFFF;}
	.st5_nurse-25{fill:#F56132;}
</style>
<g id="character_nurse-25">
	<path class="st0_nurse-25 targetColor" d="M197.7,178.5c-15,3.6-26.8,11.4-33.6,25.1c-3.9,7.8,1.4,20.7,0.5,29.8c-2.1,20.4-17.4,43.3-7.5,63.1&#10;&#9;&#9;c4.2,8.4,11.7,14.9,19.6,20.3c21.6,14.9,47.4,22.5,73.8,22.6c29.3,0.1,68.2-3,86.2-29.4c8.7-12.8,9.9-28.9,7-43.6&#10;&#9;&#9;c-1.4-7.2-4.6-14-5.8-21.2c-1.5-8.6-0.3-17.4-2.5-25.9c-5.8-22.7-27.3-31-47.9-36.7C258.4,174.6,227.1,171.4,197.7,178.5z" style="fill: rgb(114, 88, 88);"/>
	<path class="st1_nurse-25 targetColor" d="M252.2,341.3h-1.7c-27.3-0.1-53.2-8-74.8-22.9c-10-6.9-16.4-13.5-20.1-21c-6.9-13.8-2.3-28.7,2.2-43.1&#10;&#9;&#9;c2.3-7.3,4.4-14.2,5.1-21c0.4-3.4-0.2-7.5-0.9-11.8c-1-6.6-2-13.4,0.6-18.6c6.6-13.3,18.3-22.1,34.8-26.1&#10;&#9;&#9;c26.9-6.5,57.4-5.1,90.7,4.1c22,6.1,43.3,14.9,49.2,38c1.1,4.9,1.6,9.9,1.6,14.9c0.1,3.7,0.4,7.5,0.9,11.2&#10;&#9;&#9;c0.7,3.7,1.7,7.3,2.9,10.8c1.2,3.4,2.1,6.9,2.9,10.4c3.3,17.2,0.8,33.2-7.3,45C320,337.9,280.8,341.3,252.2,341.3z M197.7,178.5&#10;&#9;&#9;l0.4,1.8c-15.4,3.7-26.3,11.8-32.4,24.1c-2.1,4.2-1.1,10.4-0.2,16.4c0.6,4.3,1.3,8.8,0.9,12.7c-0.7,7.1-3,14.5-5.2,21.7&#10;&#9;&#9;c-4.2,13.8-8.6,28-2.4,40.4c3.5,6.9,9.5,13.1,18.9,19.6c21,14.4,46.2,22.1,72.8,22.2c28,0.1,67.1-2.7,84.7-28.6&#10;&#9;&#9;c7.5-11,9.9-26,6.7-42.2c-0.7-3.4-1.6-6.7-2.8-10c-1.3-3.7-2.3-7.5-3-11.3c-0.6-3.9-0.9-7.7-1-11.6c-0.2-4.9-0.3-9.5-1.5-14.1&#10;&#9;&#9;c-5.5-21.2-25.7-29.5-46.7-35.3c-32.7-9-62.6-10.4-88.9-4.1L197.7,178.5z" style="fill: rgb(9, 63, 104);" />
	<path class="st2_nurse-25 targetColor" d="M345.5,417.5v-66.6c0-29.7-28-53.8-62.6-53.8h-59.8c-34.6,0-62.6,24.1-62.6,53.8v66.6L345.5,417.5z" style="fill: rgb(104, 225, 253);"/>
	<path class="st1_nurse-25 targetColor" d="M345.5,419.3h-185c-1,0-1.8-0.8-1.8-1.8v-66.6c0-30.7,28.9-55.7,64.4-55.7h59.8c35.5,0,64.4,25,64.4,55.7v66.6&#10;&#9;&#9;C347.3,418.5,346.5,419.3,345.5,419.3z M162.4,415.6h181.3v-64.8c0-28.7-27.2-52-60.8-52h-59.8c-33.5,0-60.8,23.3-60.8,52V415.6z" style="fill: rgb(9, 63, 104);"/>
	<path class="st1_nurse-25 targetColor"  d="M192.9,417.4c-1,0-1.8-0.8-1.8-1.8v-45.4c0-1,0.8-1.8,1.8-1.8c1,0,1.8,0.8,1.8,1.8c0,0,0,0,0,0v45.4&#10;&#9;&#9;C194.8,416.6,193.9,417.4,192.9,417.4z" style="fill: rgb(9, 63, 104);"/>
	<path class="st1_nurse-25 targetColor" d="M313.1,417.4c-1,0-1.8-0.8-1.8-1.8v-45.4c0-1,0.8-1.8,1.8-1.8c1,0,1.8,0.8,1.8,1.8c0,0,0,0,0,0v45.4&#10;&#9;&#9;C314.9,416.6,314.1,417.4,313.1,417.4z" style="fill: rgb(9, 63, 104);"/>
	<path class="st2_nurse-25 targetColor" d="M207.5,348.7c0,0-10.6,9.6-10.6,28c0.1,11.2,3.8,22,10.6,30.9" style="fill: rgb(104, 225, 253);"/>
	<path class="st1_nurse-25 targetColor" d="M207.5,409.5c-0.5,0-1.1-0.2-1.4-0.6c-7.1-9.2-11-20.4-11-32c0-19.1,10.7-29,11.2-29.4&#10;&#9;&#9;c0.8-0.7,1.9-0.6,2.6,0.1s0.6,1.9-0.1,2.6l0,0l0,0c-0.1,0.1-10,9.3-10,26.7c0.1,10.7,3.7,21.1,10.2,29.7c0.6,0.8,0.5,2-0.3,2.6&#10;&#9;&#9;C208.3,409.3,208,409.4,207.5,409.5L207.5,409.5z" style="fill: rgb(9, 63, 104);"/>
	<path class="st2_nurse-25 targetColor" d="M307.4,348.7c0,0,10.6,9.6,10.6,28c-0.1,11.2-3.8,22-10.6,30.9" style="fill: rgb(104, 225, 253);"/>
	<path class="st1_nurse-25 targetColor" d="M307.4,409.5c-0.4,0-0.9-0.2-1.2-0.4c-0.8-0.7-0.9-1.8-0.2-2.6c6.5-8.5,10-18.9,10.1-29.7&#10;&#9;&#9;c0-17.4-9.9-26.6-10-26.7c-0.8-0.7-0.8-1.8-0.1-2.6s1.8-0.8,2.6-0.1c0.5,0.4,11.2,10.4,11.2,29.4c0,11.6-3.9,22.9-11,32&#10;&#9;&#9;C308.5,409.2,307.9,409.5,307.4,409.5z" style="fill: rgb(9, 63, 104);"/>
	<polygon class="st3_nurse-25 targetColor" points="253,360.6 224.2,297 281.9,297 &#9;" style="fill: rgb(255, 201, 176);"/>
	<path class="st1_nurse-25 targetColor" d="M253,362.5L253,362.5c-0.7,0-1.4-0.4-1.7-1.1l-28.8-63.6c-0.3-0.6-0.2-1.2,0.1-1.8c0.3-0.5,0.9-0.8,1.6-0.8&#10;&#9;&#9;h57.7c1,0,1.8,0.8,1.8,1.8c0,0.3-0.1,0.5-0.2,0.8l-28.8,63.6C254.4,362.1,253.7,362.5,253,362.5z M227,298.9l26,57.3l26-57.3H227z" style="fill: rgb(9, 63, 104);"/>
	<polygon class="st0_nurse-25 targetColor" points="165.5,145.2 286.4,120.1 340.5,169.2 340.5,217.1 165.5,217.1 &#9;" style="fill: rgb(114, 88, 88);"/>
	<path class="st1_nurse-25 targetColor" d="M340.5,219h-175c-1,0-1.8-0.8-1.8-1.8v-71.9c0-0.9,0.6-1.6,1.5-1.8L286,118.3c0.6-0.1,1.2,0,1.6,0.4l54.2,49.1&#10;&#9;&#9;c0.4,0.3,0.6,0.8,0.6,1.4v47.9C342.4,218.1,341.6,219,340.5,219C340.6,219,340.6,219,340.5,219z M167.3,215.3h171.4V170l-52.9-47.9&#10;&#9;&#9;l-118.5,24.7V215.3z" style="fill: rgb(9, 63, 104);"/>
	<polyline class="st3_nurse-25 targetColor" points="239.5,305.1 239.5,280.4 266.5,280.4 266.5,305.1 &#9;" style="fill: rgb(255, 201, 176);"/>
	<path class="st1_nurse-25 targetColor" d="M266.5,307c-1,0-1.8-0.8-1.8-1.8v-22.9h-23.4v22.9c-0.1,1-1,1.8-2,1.7c-0.9-0.1-1.6-0.8-1.7-1.7v-24.8&#10;&#9;&#9;c0-1,0.8-1.8,1.8-1.8c0,0,0,0,0,0h27.1c1,0,1.8,0.8,1.8,1.8v24.7C268.4,306.1,267.6,307,266.5,307C266.6,307,266.6,307,266.5,307z" style="fill: rgb(9, 63, 104);"/>
	<ellipse class="st3_nurse-25 targetColor" cx="175.7" cy="213.3" rx="26.3" ry="22.7" style="fill: rgb(255, 201, 176);"/>
	<path class="st1_nurse-25 targetColor" d="M175.7,237.8c-15.5,0-28.1-11-28.1-24.5s12.6-24.5,28.1-24.5s28.1,11,28.1,24.5S191.2,237.8,175.7,237.8z&#10;&#9;&#9; M175.7,192.5c-13.5,0-24.4,9.3-24.4,20.8s11,20.8,24.4,20.8s24.4-9.3,24.4-20.8S189.1,192.5,175.7,192.5z" style="fill: rgb(9, 63, 104);"/>
	<ellipse class="st3_nurse-25 targetColor" cx="329" cy="213.3" rx="26.3" ry="22.7" style="fill: rgb(255, 201, 176);"/>
	<path class="st1_nurse-25 targetColor" d="M329,237.8c-15.5,0-28.1-11-28.1-24.5s12.6-24.5,28.1-24.5s28.1,11,28.1,24.5S344.5,237.8,329,237.8z&#10;&#9;&#9; M329,192.5c-13.5,0-24.5,9.3-24.5,20.8s11,20.8,24.5,20.8s24.5-9.3,24.5-20.8S342.5,192.5,329,192.5z" style="fill: rgb(9, 63, 104);"/>
	<path class="st3_nurse-25 targetColor" d="M332.3,164.6v43.2c0,43.8-35.5,79.3-79.3,79.3s-79.3-35.5-79.3-79.3l0,0c0-20.6-1.8-44,16.2-58.3&#10;&#9;&#9;c1.1,8.1,6,15.4,12.5,20.3s14.5,7.6,22.6,8.9c-3.8-8-7.6-16.4-6.9-25.2c0.2-3.2,1.2-6.5,3.6-8.7c6.8-6.1,15,3.7,20,7.4&#10;&#9;&#9;c8.3,6,17.5,11.3,27.4,14.1C305,176.1,332.3,164.6,332.3,164.6z" style="fill: rgb(255, 201, 176);"/>
	<path class="st1_nurse-25 targetColor" d="M253,289c-44.8,0-81.1-36.3-81.1-81.1c0-1.7,0-3.4,0-5.1c-0.1-19.2-0.3-41,16.9-54.7c0.8-0.6,1.9-0.5,2.6,0.2&#10;&#9;&#9;c0.2,0.3,0.4,0.6,0.4,1c1,7.2,5.3,14.1,11.8,19.1c5.4,4,11.7,6.7,18.3,7.9c-3.1-6.8-6.2-14.8-5.6-22.9c0.3-4.3,1.8-7.7,4.2-9.9&#10;&#9;&#9;c6.7-6,14.3,0.5,19.2,4.7c1.1,0.9,2.2,1.9,3.1,2.5c9.6,6.9,18.3,11.5,26.8,13.8c34.8,9.5,61.7-1.5,62-1.6c0.6-0.2,1.2-0.2,1.7,0.2&#10;&#9;&#9;c0.5,0.3,0.8,0.9,0.8,1.5v43.2C334.2,252.7,297.9,289,253,289C253,289,253,289,253,289z M188.7,153c-13.4,12.6-13.3,31.5-13.2,49.7&#10;&#9;&#9;c0,1.7,0,3.4,0,5.1c0.5,42.8,35.6,77.1,78.3,76.6c42.1-0.5,76.1-34.5,76.6-76.6v-40.6c-7.7,2.6-31.6,9.1-61.8,0.8&#10;&#9;&#9;c-8.9-2.4-18.1-7.1-28.1-14.4c-1-0.7-2.1-1.7-3.3-2.7c-5.7-4.9-10.4-8.4-14.4-4.8c-2.1,1.9-2.8,5.1-3,7.4&#10;&#9;&#9;c-0.7,8.5,3.3,16.9,6.8,24.3c0.4,0.9,0,2-0.9,2.5c-0.3,0.2-0.7,0.2-1,0.2c-9.3-1.4-17.2-4.5-23.4-9.2&#10;&#9;&#9;C195.2,166.8,190.7,160.4,188.7,153z" style="fill: rgb(9, 63, 104);"/>
	<path class="st1_nurse-25 targetColor" d="M256.8,234.4c-2.4,0-4.7-0.2-7.1-0.6c-1-0.2-1.7-1.1-1.5-2.1s1.1-1.7,2.1-1.5l0,0c0.1,0,6.8,1.2,11.4,0&#10;&#9;&#9;c0.8-1.4-2.1-10-6.2-17.9c-0.5-0.9-0.2-2,0.7-2.5c0.9-0.5,2-0.2,2.5,0.7c0,0,0.1,0.1,0.1,0.1c2,3.8,8.3,16.6,6.2,21.2&#10;&#9;&#9;c-0.4,1-1.3,1.7-2.4,2C260.7,234.2,258.8,234.5,256.8,234.4z" style="fill: rgb(9, 63, 104);"/>
	<circle class="st1_nurse-25 targetColor" cx="286.4" cy="213" r="6.9" style="fill: rgb(9, 63, 104);"/>
	<circle class="st1_nurse-25 targetColor" cx="221.8" cy="210.3" r="6.9" style="fill: rgb(9, 63, 104);"/>
	<path class="st1_nurse-25 targetColor" d="M233.1,192.1h-32.9c-2-0.1-3.6-1.8-3.5-3.9c0.1-1.9,1.6-3.4,3.5-3.5h32.9c2,0.1,3.6,1.8,3.5,3.9&#10;&#9;&#9;C236.5,190.5,235,192,233.1,192.1z" style="fill: rgb(9, 63, 104);"/>
	<path class="st1_nurse-25 targetColor" d="M306.4,192.1h-32.9c-2-0.1-3.6-1.8-3.5-3.9c0.1-1.9,1.6-3.4,3.5-3.5h32.9c2,0.1,3.6,1.8,3.5,3.9&#10;&#9;&#9;C309.8,190.5,308.3,192,306.4,192.1z" style="fill: rgb(9, 63, 104);"/>
	<path class="st2_nurse-25 targetColor" d="M168.5,100.1c0,0,9.2-27.2,84.6-27.2s84.8,27.2,84.8,27.2l5,71c0,0-21.9-19.9-89.8-19.9s-89.6,19.9-89.6,19.9&#10;&#9;&#9;L168.5,100.1z" style="fill: rgb(104, 225, 253);"/>
	<path class="st1_nurse-25 targetColor" d="M342.8,172.9c-0.5,0-0.9-0.2-1.2-0.5c-0.2-0.2-22.3-19.4-88.5-19.4s-88.1,19.2-88.3,19.4&#10;&#9;&#9;c-0.8,0.7-1.9,0.6-2.6-0.1c-0.3-0.4-0.5-0.9-0.5-1.3l5-71c0-0.2,0-0.3,0.1-0.5c0.4-1.2,10.5-28.5,86.3-28.5s86.1,27.3,86.5,28.5&#10;&#9;&#9;c0.1,0.2,0.1,0.3,0.1,0.5l5,71c0.1,1-0.7,1.9-1.7,2C343,172.9,342.9,172.9,342.8,172.9L342.8,172.9z M253.1,149.3&#10;&#9;&#9;c54.2,0,79.3,12.5,87.6,17.9l-4.7-66.7c-1-2.3-13.4-25.8-83-25.8s-81.7,23.5-82.8,25.8l-4.6,66.7C174,161.7,199,149.3,253.1,149.3&#10;&#9;&#9;L253.1,149.3z" style="fill: rgb(9, 63, 104);"/>
	<path class="st4_nurse-25 targetColor" d="M306.4,227.9v38.6c-29.4,26.7-74,27.6-104.4,2v-40.6H306.4z" style="fill: rgb(255, 255, 255);"/>
	<path class="st1_nurse-25 targetColor" d="M253,289c-19.1,0-37.6-6.8-52.2-19c-0.4-0.3-0.7-0.9-0.7-1.4v-40.6c0-1,0.8-1.8,1.8-1.8h104.4&#10;&#9;&#9;c1,0,1.8,0.8,1.8,1.8v38.6c0,0.5-0.2,1-0.6,1.4C292.7,281.5,273.2,289,253,289z M203.8,267.7c29.5,24.2,72.2,23.4,100.7-2v-35.9&#10;&#9;&#9;H203.8V267.7z" style="fill: rgb(9, 63, 104);"/>
	<path class="st1_nurse-25 targetColor" d="M202,229.8c-0.6,0-1.1-0.2-1.4-0.7l-30.1-37.3c-0.6-0.8-0.5-1.9,0.3-2.6c0.8-0.6,1.9-0.5,2.6,0.3l0,0&#10;&#9;&#9;l30.1,37.3c0.6,0.8,0.5,1.9-0.2,2.6C202.9,229.6,202.4,229.8,202,229.8L202,229.8z" style="fill: rgb(9, 63, 104);"/>
	<path class="st1_nurse-25 targetColor" d="M306.4,229.8c-0.4,0-0.7-0.1-1-0.3c-0.8-0.6-1-1.7-0.5-2.6l26-37.3c0.5-0.9,1.6-1.2,2.5-0.7&#10;&#9;&#9;c0.9,0.5,1.2,1.6,0.7,2.5c-0.1,0.1-0.1,0.2-0.2,0.3l-26,37.3C307.5,229.5,307,229.8,306.4,229.8z" style="fill: rgb(9, 63, 104);"/>
	<polygon class="st5_nurse-25 targetColor" points="277.2,101.7 261.4,101.7 261.4,85.9 244.8,85.9 244.8,101.7 229,101.7 229,118.3 244.8,118.3 &#10;&#9;&#9;244.8,134.1 261.4,134.1 261.4,118.3 277.2,118.3 &#9;" style="fill: rgb(245,97,50);"/>
	<path class="st1_nurse-25 targetColor" d="M261.4,136h-16.6c-1,0-1.8-0.8-1.8-1.8c0,0,0,0,0,0v-14H229c-1,0-1.8-0.8-1.8-1.8c0,0,0,0,0,0v-16.6&#10;&#9;&#9;c0-1,0.8-1.8,1.9-1.8h13.9v-14c0-1,0.8-1.8,1.8-1.8h16.6c1,0,1.8,0.8,1.8,1.8v14h14c1,0,1.8,0.8,1.8,1.8v16.6c0,1-0.8,1.8-1.8,1.8&#10;&#9;&#9;h-14v14C263.3,135.2,262.4,136,261.4,136C261.4,136,261.4,136,261.4,136z M246.6,132.3h12.9v-14c0-1,0.8-1.8,1.8-1.8h14v-12.9h-14&#10;&#9;&#9;c-1,0-1.8-0.8-1.8-1.8v-14h-12.9v14c0,1-0.8,1.8-1.8,1.8h-13.9v12.9h13.9c1,0,1.8,0.8,1.8,1.8V132.3z" style="fill: rgb(9, 63, 104);"/>
	<path class="st1_nurse-25 targetColor" d="M286.4,403.3c-0.2,0-0.4,0-0.6-0.1l-14.6-5.5c-0.7-0.3-1.2-1-1.2-1.7v-29.2c0-1,0.8-1.8,1.8-1.8H301&#10;&#9;&#9;c1,0,1.8,0.8,1.8,1.8V396c0,0.8-0.5,1.5-1.2,1.7l-14.6,5.4C286.8,403.2,286.6,403.3,286.4,403.3z M273.6,394.7l12.7,4.8l12.7-4.8&#10;&#9;&#9;v-26h-25.5V394.7z M301,396L301,396z" style="fill: rgb(9, 63, 104);"/>
</g>
<g id="board_nurse-25">
	<rect x="158.1" y="346.8" class="st4_nurse-25 targetColor" width="70.9" height="80.3" style="fill: rgb(255, 255, 255);"/>
	<path class="st1_nurse-25 targetColor" d="M229.1,429h-70.9c-1,0-1.8-0.8-1.8-1.8v-80.3c0-1,0.8-1.8,1.8-1.9h70.9c1,0,1.8,0.8,1.8,1.8c0,0,0,0,0,0v80.3&#10;&#9;&#9;C230.9,428.2,230.1,429,229.1,429z M160,425.3h67.2v-76.6H160V425.3z" style="fill: rgb(9, 63, 104);"/>
	<path class="st1_nurse-25 targetColor" d="M200,342.4c0-3.5-2.9-6.4-6.4-6.4c-3.5,0-6.4,2.9-6.4,6.4h-9.2v11.9h31v-11.9H200z" style="fill: rgb(9, 63, 104);"/>
	<path class="st1_nurse-25 targetColor" d="M209.1,356.1h-31c-1,0-1.8-0.8-1.8-1.8v-11.9c0-1,0.8-1.8,1.8-1.8h7.5c1-4.4,5.4-7.2,9.8-6.2&#10;&#9;&#9;c3.1,0.7,5.4,3.1,6.2,6.2h7.5c1,0,1.8,0.8,1.8,1.8v11.9C211,355.3,210.1,356.1,209.1,356.1C209.1,356.2,209.1,356.2,209.1,356.1z&#10;&#9;&#9; M179.9,352.5h27.3v-8.2H200c-1,0-1.8-0.8-1.8-1.8c0-2.5-2-4.5-4.5-4.5c-2.5,0-4.5,2-4.5,4.5c0,0,0,0,0,0c0,1-0.8,1.8-1.8,1.8H180&#10;&#9;&#9;L179.9,352.5z M201.8,342.5L201.8,342.5z" style="fill: rgb(9, 63, 104);"/>
	<path class="st3_nurse-25 targetColor" d="M178.5,409.1c-5.6,2.5-18,3.4-20.4,3.7c-5.5,0.9-10.7-2.9-11.6-8.4c0,0,0,0,0,0l-1.7-10.6&#10;&#9;&#9;c-2.1-13.3,16.9-13.8,25.6-13.8c1.5-0.1,3,0.2,4.4,0.9c1.3,0.8,2.1,2.5,1.4,3.9c-0.7,1-1.8,1.7-3,1.9c-2.7,0.8-5.4,1.5-8.1,2.1&#10;&#9;&#9;c3.8-0.7,7.6-0.7,11.4-0.2c1.2,0.1,2.3,0.5,3.3,1.1c1,0.6,1.5,1.8,1.4,3c-0.4,1.2-1.3,2.1-2.4,2.5c-2.6,1.4-5.5,2.2-8.4,2.3&#10;&#9;&#9;c3-0.7,6-0.7,9-0.2c1.6,0.3,3.6,1.2,3.4,2.8c-0.1,1.2-1.4,2-2.5,2.5c-2.4,1-4.8,1.8-7.3,2.3c1.9-0.6,4-0.8,6-0.4&#10;&#9;&#9;c0.9,0.2,1.9,0.6,2.2,1.5C181.6,407.2,180.4,408.3,178.5,409.1z" style="fill: rgb(255, 201, 176);"/>
	<path class="st1_nurse-25 targetColor" d="M156.5,414.8c-5.9,0-10.9-4.3-11.8-10.1c-1.7-10.6-1.7-10.6-1.7-10.7c-0.7-3.3,0.2-6.7,2.4-9.2&#10;&#9;&#9;c5.1-6,16.8-6.6,25-6.6c1.8-0.1,3.7,0.3,5.3,1.1c2,1.2,3.3,3.9,2.1,6.3c-0.2,0.4-0.5,0.8-0.8,1.1c1.4,0.2,2.7,0.6,3.9,1.4&#10;&#9;&#9;c1.6,1.1,2.5,3,2.1,4.9c-0.3,1.1-0.9,2.1-1.9,2.8c2.3,0.8,3.6,2.5,3.5,4.4c-0.2,1.6-1.3,2.9-2.8,3.6c0.5,0.4,0.8,1,1,1.7&#10;&#9;&#9;c0.4,1.5,0,3.7-3.8,5.4l0,0c-4.8,2.1-13.6,3.1-18.4,3.6c-1.1,0.1-2,0.2-2.4,0.3C157.8,414.8,157.2,414.8,156.5,414.8z M169.5,381.8&#10;&#9;&#9;c-5.1,0-17,0.3-21.3,5.3c-1.5,1.8-2,4.1-1.5,6.4l1.7,10.6c0.7,4.5,4.9,7.6,9.5,6.9c0.5-0.1,1.4-0.2,2.6-0.3&#10;&#9;&#9;c4.2-0.5,13.1-1.4,17.3-3.3l0,0c0.6-0.2,1.2-0.6,1.6-1.1c-0.2-0.1-0.4-0.2-0.7-0.2c-1.1-0.2-2.2-0.2-3.3-0.1&#10;&#9;&#9;c-0.6,0.2-1.3,0.3-1.9,0.5c-1,0.3-2-0.3-2.2-1.3s0.3-2,1.3-2.2c0.7-0.2,1.4-0.4,2.1-0.5c1.7-0.5,3.4-1,5-1.7&#10;&#9;&#9;c1.2-0.5,1.4-0.9,1.4-0.9c-0.5-0.5-1.2-0.8-1.9-0.9c-1.6-0.3-3.3-0.4-4.9-0.3c-1.2,0.3-2.4,0.4-3.6,0.5c-1,0.1-1.9-0.7-1.9-1.7&#10;&#9;&#9;c0-0.9,0.6-1.7,1.4-1.9c1.2-0.3,2.4-0.4,3.6-0.5c1.5-0.4,3-0.9,4.4-1.6c1.2-0.6,1.4-1.1,1.5-1.3c0-0.5-0.3-0.9-0.6-1.1&#10;&#9;&#9;c-0.8-0.4-1.6-0.7-2.5-0.8c-3.6-0.6-7.2-0.5-10.8,0.2c-1,0.2-1.9-0.5-2.1-1.4c-0.2-1,0.4-2,1.4-2.2c2.7-0.6,5.3-1.2,7.9-2&#10;&#9;&#9;c0.5-0.1,1.6-0.5,1.8-0.9s-0.2-1.1-0.8-1.4c-1.1-0.5-2.3-0.7-3.4-0.6L169.5,381.8z" style="fill: rgb(9, 63, 104);"/>
</g>
</svg>