<?xml version="1.0" ?>
<svg xmlns="http://www.w3.org/2000/svg" xmlns:xlink="http://www.w3.org/1999/xlink" version="1.1" viewBox="0 0 512 512" style="enable-background:new 0 0 512 512;" xml:space="preserve">
    <g id="_x32_8_x2C__Contract_x2C__sign_lenguage_x2C__write_x2C__communications_x2C__writing_x2C__document">
        <g>
            <path id="XMLID_451_" style="fill:#FFFFFF;" d="M338.499,8.5h-300c-16.57,0-30,13.43-30,30v435c0,16.57,13.43,30,30,30h300    c16.57,0,30-13.43,30-30v-435C368.499,21.93,355.069,8.5,338.499,8.5z"/>
            <polygon id="XMLID_459_" style="fill:#FFFFFF;" points="480.209,27.53 466.819,62.56 446.999,68.5 438.799,51.85 452.189,16.82       "/>
            <path id="XMLID_460_" style="fill:#FFFFFF;" d="M480.829,67.91c-54.175,141.732-47.674,124.724-48.2,126.1l-35.13,7.49    l-20.91-28.91l48.2-126.1C424.678,46.474,480.711,67.865,480.829,67.91z"/>
            <path id="XMLID_461_" style="fill:#90CAF9;" d="M432.629,194.01c-1.448,3.789-69.156,180.934-72.3,189.16h-32.663l-23.387-21.43    c55.941-146.336,22.746-59.504,72.31-189.15L432.629,194.01z"/>
            <path id="XMLID_462_" style="fill:#90CAF9;" d="M255.999,46c12.43,0,22.5,10.07,22.5,22.5c0,12.414-10.06,22.5-22.5,22.5h-135    c-12.43,0-22.5-10.07-22.5-22.5c0-12.415,10.06-22.5,22.5-22.5H255.999z"/>
            <rect id="XMLID_463_" x="45.999" y="428.5" style="fill:#90CAF9;" width="37.5" height="37.5"/>
            <rect id="XMLID_464_" x="45.999" y="353.5" style="fill:#90CAF9;" width="37.5" height="37.5"/>
            <rect id="XMLID_465_" x="45.999" y="278.5" style="fill:#90CAF9;" width="37.5" height="37.5"/>
            <polygon id="XMLID_466_" style="fill:#FFFFFF;" points="360.329,383.17 310.879,428.5 304.279,361.74   "/>
            <g>
                <path style="fill:#2196F3;" d="M45.999,211h285c4.143,0,7.5-3.357,7.5-7.5s-3.357-7.5-7.5-7.5h-285c-4.143,0-7.5,3.357-7.5,7.5     S41.856,211,45.999,211z" />
                <path style="fill:#2196F3;" d="M45.999,173.5h285c4.143,0,7.5-3.357,7.5-7.5s-3.357-7.5-7.5-7.5h-285c-4.143,0-7.5,3.357-7.5,7.5     S41.856,173.5,45.999,173.5z"/>
                <path style="fill:#2196F3;" d="M45.999,136h285c4.143,0,7.5-3.357,7.5-7.5c0-4.143-3.357-7.5-7.5-7.5h-285     c-4.143,0-7.5,3.357-7.5,7.5C38.499,132.643,41.856,136,45.999,136z"/>
                <path style="fill:#2196F3;" d="M45.999,248.5h157.5c4.143,0,7.5-3.357,7.5-7.5s-3.357-7.5-7.5-7.5h-157.5     c-4.143,0-7.5,3.357-7.5,7.5S41.856,248.5,45.999,248.5z"/>
                <path style="fill:#2196F3;" d="M83.499,271h-37.5c-4.143,0-7.5,3.357-7.5,7.5V316c0,4.143,3.357,7.5,7.5,7.5h37.5     c4.143,0,7.5-3.357,7.5-7.5v-37.5C90.999,274.357,87.642,271,83.499,271z M75.999,308.5h-22.5V286h22.5V308.5z"/>
                <path style="fill:#2196F3;" d="M120.999,323.5h127.5c4.143,0,7.5-3.357,7.5-7.5s-3.357-7.5-7.5-7.5h-127.5     c-4.143,0-7.5,3.357-7.5,7.5S116.856,323.5,120.999,323.5z"/>
                <path style="fill:#2196F3;" d="M83.499,346h-37.5c-4.143,0-7.5,3.357-7.5,7.5V391c0,4.143,3.357,7.5,7.5,7.5h37.5     c4.143,0,7.5-3.357,7.5-7.5v-37.5C90.999,349.357,87.642,346,83.499,346z M75.999,383.5h-22.5V361h22.5V383.5z"/>
                <path style="fill:#2196F3;" d="M120.999,398.5h127.5c4.143,0,7.5-3.357,7.5-7.5s-3.357-7.5-7.5-7.5h-127.5     c-4.143,0-7.5,3.357-7.5,7.5S116.856,398.5,120.999,398.5z"/>
                <path style="fill:#2196F3;" d="M83.499,421h-37.5c-4.143,0-7.5,3.357-7.5,7.5V466c0,4.143,3.357,7.5,7.5,7.5h37.5     c4.143,0,7.5-3.357,7.5-7.5v-37.5C90.999,424.357,87.642,421,83.499,421z M75.999,458.5h-22.5V436h22.5V458.5z"/>
                <path style="fill:#2196F3;" d="M248.499,458.5h-127.5c-4.143,0-7.5,3.357-7.5,7.5s3.357,7.5,7.5,7.5h127.5     c4.143,0,7.5-3.357,7.5-7.5S252.642,458.5,248.499,458.5z"/>
                <path style="fill:#2196F3;" d="M120.999,98.5h135c16.542,0,30-13.458,30-30s-13.458-30-30-30h-135c-16.542,0-30,13.458-30,30     S104.457,98.5,120.999,98.5z M120.999,53.5h135c8.271,0,15,6.729,15,15s-6.728,15-15,15h-135c-8.271,0-15-6.729-15-15     S112.728,53.5,120.999,53.5z"/>
                <path style="fill:#2196F3;" d="M506.177,85.63l-21.017-8.033l2.678-7.006c1.478-3.866-0.459-8.205-4.328-9.684l-7.005-2.678     l10.712-28.023c1.479-3.869-0.459-8.204-4.328-9.684L454.866,9.811c-3.86-1.475-8.201,0.451-9.684,4.328l-10.712,28.023     l-7.006-2.678c-3.871-1.481-8.204,0.459-9.684,4.328c-15.939,41.699-29.771,77.88-41.782,109.298V38.5     c0-20.678-16.822-37.5-37.5-37.5h-300c-20.678,0-37.5,16.822-37.5,37.5v435c0,20.678,16.822,37.5,37.5,37.5h300     c20.678,0,37.5-16.822,37.5-37.5V363.199c12.074-31.515,39.773-104.1,103.805-271.59l14.012,5.355l-40.169,105.085     c-1.479,3.869,0.459,8.204,4.328,9.684c3.87,1.48,8.205-0.461,9.684-4.328l42.847-112.091     C511.983,91.447,510.046,87.108,506.177,85.63z M456.517,26.501l14.011,5.356l-8.034,21.016     c-3.842-1.469-11.27-4.308-14.011-5.356L456.517,26.501z M448.676,47.592C448.692,47.598,448.694,47.599,448.676,47.592     L448.676,47.592z M448.482,47.518c0.001,0,0.004,0.001,0.007,0.002C448.486,47.519,448.485,47.519,448.482,47.518L448.482,47.518     z M338.499,496h-300c-12.406,0-22.5-10.094-22.5-22.5v-435c0-12.406,10.094-22.5,22.5-22.5h300c12.406,0,22.5,10.094,22.5,22.5     v153.844C348.8,224.252,338.923,250.085,330.928,271H120.999c-4.143,0-7.5,3.357-7.5,7.5s3.357,7.5,7.5,7.5h204.194     c-12.025,31.46-18.934,49.55-22.908,60H120.999c-4.143,0-7.5,3.357-7.5,7.5s3.357,7.5,7.5,7.5h175.812     c-0.128,0.849,0.171,3.121,5.793,60H120.999c-4.143,0-7.5,3.357-7.5,7.5s3.357,7.5,7.5,7.5c198.237,0,190.174,0.081,191.311-0.14     c1.361-0.262,2.66-0.934,3.639-1.832c26.86-24.635,39.26-35.978,45.05-41.298v80.77C360.999,485.906,350.905,496,338.499,496z      M316.869,412.835l-3.93-39.753l33.374,12.757L316.869,412.835z M355.999,373.482c-12.023-4.596-29.827-11.401-42.033-16.067     l66.947-175.14l42.033,16.067L355.999,373.482z M428.302,184.331l-42.033-16.068l42.846-112.089l42.033,16.067L428.302,184.331z"/>
                <path style="fill:#2196F3;" d="M448.568,47.55c-0.007-0.003-0.013-0.005-0.02-0.008C448.554,47.545,448.561,47.547,448.568,47.55     z"/>
            </g>
            </g>
        </g>
    <g id="Layer_1"/>
</svg>